HIERARCHY
ROOT hip
{
  OFFSET 0 0 0
  CHANNELS 6 Xposition Yposition Zposition Zrotation Yrotation Xrotation
  JOINT abdomen
  {
    OFFSET 0 20.6881 -0.73152
    CHANNELS 3 Zrotation Xrotation Yrotation
    JOINT chest
    {
      OFFSET 0 11.7043 -0.48768
      CHANNELS 3 Zrotation Xrotation Yrotation
      JOINT neck
      {
        OFFSET 0 22.1894 -2.19456
        CHANNELS 3 Zrotation Xrotation Yrotation
        JOINT head
        {
          OFFSET -0.24384 7.07133 1.2192
          CHANNELS 3 Zrotation Xrotation Yrotation
          JOINT leftEye
          {
            OFFSET 4.14528 8.04674 8.04672
            CHANNELS 3 Zrotation Xrotation Yrotation
            End Site
            {
              OFFSET 1 0 0
            }
          }
          JOINT rightEye
          {
            OFFSET -3.6576 8.04674 8.04672
            CHANNELS 3 Zrotation Xrotation Yrotation
            End Site
            {
              OFFSET 1 0 0
            }
          }
        }
      }
      JOINT rCollar
      {
        OFFSET -2.68224 19.2634 -4.8768
        CHANNELS 3 Zrotation Xrotation Yrotation
        JOINT rShldr
        {
          OFFSET -8.77824 -1.95073 1.46304
          CHANNELS 3 Zrotation Xrotation Yrotation
          JOINT rForeArm
          {
            OFFSET -28.1742 -1.7115 0.48768
            CHANNELS 3 Zrotation Xrotation Yrotation
            JOINT rHand
            {
              OFFSET -22.5879 0.773209 7.07136
              CHANNELS 3 Zrotation Xrotation Yrotation
              JOINT rThumb1
              {
                OFFSET -1.2192 -0.487915 3.41376
                CHANNELS 3 Zrotation Xrotation Yrotation
                JOINT rThumb2
                {
                  OFFSET -3.37035 -0.52449 3.41376
                  CHANNELS 3 Zrotation Xrotation Yrotation
                  End Site
                  {
                    OFFSET -1.78271 -1.18214 1.43049
                  }
                }
              }
              JOINT rIndex1
              {
                OFFSET -7.75947 0.938293 5.60832
                CHANNELS 3 Zrotation Xrotation Yrotation
                JOINT rIndex2
                {
                  OFFSET -2.54057 -0.884171 1.56538
                  CHANNELS 3 Zrotation Xrotation Yrotation
                  End Site
                  {
                    OFFSET -1.62519 -0.234802 1.16502
                  }
                }
              }
              JOINT rMid1
              {
                OFFSET -8.24714 1.18213 3.41376
                CHANNELS 3 Zrotation Xrotation Yrotation
                JOINT rMid2
                {
                  OFFSET -3.10165 -0.590103 1.0647
                  CHANNELS 3 Zrotation Xrotation Yrotation
                  End Site
                  {
                    OFFSET -2.48547 -0.328903 0.83742
                  }
                }
              }
              JOINT rRing1
              {
                OFFSET -8.82822 0.546677 1.51678
                CHANNELS 3 Zrotation Xrotation Yrotation
                JOINT rRing2
                {
                  OFFSET -2.60934 -0.819778 -0.0198488
                  CHANNELS 3 Zrotation Xrotation Yrotation
                  End Site
                  {
                    OFFSET -2.33842 -0.294052 0.168128
                  }
                }
              }
              JOINT rPinky1
              {
                OFFSET -8.27202 -0.0477905 -0.4584
                CHANNELS 3 Zrotation Xrotation Yrotation
                JOINT rPinky2
                {
                  OFFSET -1.82734 -0.647385 -0.700984
                  CHANNELS 3 Zrotation Xrotation Yrotation
                  End Site
                  {
                    OFFSET -1.69225 -0.51767 -0.607171
                  }
                }
              }
            }
          }
        }
      }
      JOINT lCollar
      {
        OFFSET 2.68224 19.2634 -4.8768
        CHANNELS 3 Zrotation Xrotation Yrotation
        JOINT lShldr
        {
          OFFSET 8.77824 -1.95073 1.46304
          CHANNELS 3 Zrotation Xrotation Yrotation
          JOINT lForeArm
          {
            OFFSET 28.1742 -1.7115 0.48768
            CHANNELS 3 Zrotation Xrotation Yrotation
            JOINT lHand
            {
              OFFSET 22.5879 0.773209 7.07136
              CHANNELS 3 Zrotation Xrotation Yrotation
              JOINT lThumb1
              {
                OFFSET 1.2192 -0.487915 3.41376
                CHANNELS 3 Zrotation Xrotation Yrotation
                JOINT lThumb2
                {
                  OFFSET 3.37035 -0.52449 3.41376
                  CHANNELS 3 Zrotation Xrotation Yrotation
                  End Site
                  {
                    OFFSET 1.78271 -1.18214 1.43049
                  }
                }
              }
              JOINT lIndex1
              {
                OFFSET 7.75947 0.938293 5.60832
                CHANNELS 3 Zrotation Xrotation Yrotation
                JOINT lIndex2
                {
                  OFFSET 2.54057 -0.884171 1.56538
                  CHANNELS 3 Zrotation Xrotation Yrotation
                  End Site
                  {
                    OFFSET 1.62519 -0.234802 1.16502
                  }
                }
              }
              JOINT lMid1
              {
                OFFSET 8.24714 1.18213 3.41376
                CHANNELS 3 Zrotation Xrotation Yrotation
                JOINT lMid2
                {
                  OFFSET 3.10165 -0.590103 1.0647
                  CHANNELS 3 Zrotation Xrotation Yrotation
                  End Site
                  {
                    OFFSET 2.48547 -0.328903 0.83742
                  }
                }
              }
              JOINT lRing1
              {
                OFFSET 8.82822 0.546677 1.51678
                CHANNELS 3 Zrotation Xrotation Yrotation
                JOINT lRing2
                {
                  OFFSET 2.60934 -0.819778 -0.0198488
                  CHANNELS 3 Zrotation Xrotation Yrotation
                  End Site
                  {
                    OFFSET 2.33842 -0.294052 0.168128
                  }
                }
              }
              JOINT lPinky1
              {
                OFFSET 8.27202 -0.0477905 -0.4584
                CHANNELS 3 Zrotation Xrotation Yrotation
                JOINT lPinky2
                {
                  OFFSET 1.82734 -0.647385 -0.700984
                  CHANNELS 3 Zrotation Xrotation Yrotation
                  End Site
                  {
                    OFFSET 1.69225 -0.51767 -0.607171
                  }
                }
              }
            }
          }
        }
      }
    }
  }
  JOINT rButtock
  {
    OFFSET -8.77824 4.35084 1.2192
    CHANNELS 3 Zrotation Xrotation Yrotation
    JOINT rThigh
    {
      OFFSET 0 -1.70687 -2.19456
      CHANNELS 3 Zrotation Xrotation Yrotation
      JOINT rShin
      {
        OFFSET 0 -36.8199 0.73152
        CHANNELS 3 Zrotation Xrotation Yrotation
        JOINT rFoot
        {
          OFFSET 0.73152 -45.1104 -5.12064
          CHANNELS 3 Zrotation Xrotation Yrotation
          End Site
          {
            OFFSET -1.1221 -3.69964 12.103
          }
        }
      }
    }
  }
  JOINT lButtock
  {
    OFFSET 8.77824 4.35084 1.2192
    CHANNELS 3 Zrotation Xrotation Yrotation
    JOINT lThigh
    {
      OFFSET 0 -1.70687 -2.19456
      CHANNELS 3 Zrotation Xrotation Yrotation
      JOINT lShin
      {
        OFFSET 0 -36.8199 0.73152
        CHANNELS 3 Zrotation Xrotation Yrotation
        JOINT lFoot
        {
          OFFSET -0.73152 -45.1104 -5.12064
          CHANNELS 3 Zrotation Xrotation Yrotation
          End Site
          {
            OFFSET 1.1221 -3.69964 12.103
          }
        }
      }
    }
  }
}
MOTION
Frames:	4
Frame Time:	0.03333
-28.6852 76.7569 -116.141 -2.5731 -26.016 343.109 2.08299 47.9219 0.736853 -1.76894 -11.1219 -0.400111 -1.4895099999999997 12.6007 8.038649999999999 2.1832300000000004 -33.8369 17.0767 -0.0 0.0 0.0 -0.0 0.0 0.0 -8.10293e-14 2.9102999999999997e-13 9.57546e-13 110.059 54.0788 -56.020999999999994 -27.976599999999998 -40.5356 84.88689999999998 -23.3982 -74.5061 -30.463200000000004 -2.72129e-09 4.31953e-09 1.37363e-09 -4.74274e-09 7.298409999999999e-09 2.19749e-09 -2.72129e-09 4.31953e-09 1.37361e-09 7.730909999999999 5.47488 0.417314 -2.72129e-09 4.31953e-09 1.37363e-09 2.90554 0.965183 0.102902 -2.72129e-09 4.31953e-09 1.37363e-09 10.278600000000003 0.731801 0.0259123 -2.7213e-09 4.31953e-09 1.37363e-09 2.22167 -0.733487 -0.20892000000000002 -8.10848e-14 2.91011e-13 9.572480000000002e-13 15.2613 3.91255 -114.558 27.9424 -40.708 -85.20000000000002 11.191300000000002 -64.9521 17.501700000000003 3.67564e-09 5.46614e-10 -1.1053e-09 6.360180000000001e-09 8.584089999999999e-10 -1.71579e-09 3.67564e-09 5.46611e-10 -1.1053e-09 -7.730909999999999 5.47488 -0.417314 3.67564e-09 5.46611e-10 -1.1053e-09 -2.90554 0.965183 -0.102902 3.67564e-09 5.46611e-10 -1.1053e-09 -10.278600000000003 0.731801 -0.0259123 3.675649999999999e-09 5.46612e-10 -1.10531e-09 -2.22167 -0.733487 0.20892000000000002 -2.03217e-16 0.0 -3.88251e-19 2.7687 -8.23772 1.04224 -0.48661000000000004 55.7141 2.68137 -5.912320000000001 -18.0434 -11.266300000000001 2.03217e-16 0.0 3.88251e-19 160.39099999999996 -53.3715 165.795 176.89399999999998 56.7561 -176.96600000000004 0.999533 -0.982353 6.10408
-28.7186 76.958 -116.086 -1.6243 -27.6825 341.847 0.0518071 48.3062 2.61015 -2.1881100000000004 -10.9669 -0.216754 -1.51228 12.5731 8.19831 2.52321 -33.4148 17.477500000000003 -0.0 0.0 0.0 -0.0 0.0 0.0 5.678259999999999e-14 2.26024e-13 3.7568100000000004e-13 110.51199999999999 54.8758 -56.3409 -28.0047 -40.3907 84.6238 -23.5923 -74.59350000000002 -30.664500000000004 -2.87706e-10 7.46871e-10 4.2372699999999997e-10 -5.21641e-10 1.29028e-09 7.11488e-10 -2.87708e-10 7.46876e-10 4.23703e-10 7.730909999999999 5.47488 0.417314 -2.87706e-10 7.4687e-10 4.23726e-10 2.90554 0.965183 0.102902 -2.87702e-10 7.46869e-10 4.2372299999999993e-10 10.278600000000003 0.731801 0.0259123 -2.87711e-10 7.46869e-10 4.23726e-10 2.22167 -0.733487 -0.20892000000000002 5.6752100000000005e-14 2.2601300000000003e-13 3.7543e-13 11.1475 2.8238700000000003 -114.274 27.8016 -41.3172 -86.34989999999999 13.7876 -67.9774 20.3321 4.13551e-11 -1.72019e-10 3.47553e-10 5.01181e-11 -2.7558000000000005e-10 5.79359e-10 4.1357000000000006e-11 -1.72022e-10 3.4756800000000006e-10 -7.730909999999999 5.47488 -0.417314 4.1357000000000006e-11 -1.72022e-10 3.47559e-10 -2.90554 0.965183 -0.102902 4.135350000000001e-11 -1.7202100000000003e-10 3.47554e-10 -10.278600000000003 0.731801 -0.0259123 4.13597e-11 -1.7202100000000003e-10 3.4754399999999995e-10 -2.22167 -0.733487 0.20892000000000002 -2.03217e-16 0.0 -3.88251e-19 2.20432 -7.470530000000001 2.17106 -0.479177 55.7407 2.72233 -5.66543 -18.053799999999995 -10.6963 2.03217e-16 0.0 3.88251e-19 160.37199999999999 -48.5934 163.981 176.969 54.8884 -176.96200000000002 0.793871 -1.18775 5.47807
-28.8095 77.0693 -116.084 -1.0702 -29.1561 340.805 -1.68658 48.2509 4.14889 -2.5029799999999995 -10.8586 -0.0722648 -1.5350699999999997 12.5334 8.37855 2.8548900000000006 -32.883199999999995 17.9078 -0.0 0.0 0.0 -0.0 0.0 0.0 1.86066e-13 1.38354e-13 -2.32031e-13 110.837 55.61820000000001 -56.4858 -28.040199999999995 -40.197 84.2755 -23.555300000000003 -74.5771 -30.626200000000004 1.99673e-09 -2.63376e-09 -4.9541e-10 3.44318e-09 -4.3980200000000005e-09 -7.308879999999999e-10 1.99673e-09 -2.63375e-09 -4.95432e-10 7.730909999999999 5.47488 0.417314 1.99673e-09 -2.63376e-09 -4.954189999999999e-10 2.90554 0.965183 0.102902 1.99673e-09 -2.63376e-09 -4.95418e-10 10.278600000000003 0.731801 0.0259123 1.99672e-09 -2.63376e-09 -4.954159999999999e-10 2.22167 -0.733487 -0.20892000000000002 1.86022e-13 1.38354e-13 -2.3222999999999996e-13 6.99055 2.03346 -113.74499999999999 27.7387 -41.6157 -86.86920000000002 16.7442 -70.5795 23.4927 -3.13443e-09 -9.52974e-10 1.8389999999999995e-09 -5.47127e-09 -1.53719e-09 2.96305e-09 -3.13443e-09 -9.52975e-10 1.8390300000000002e-09 -7.730909999999999 5.47488 -0.417314 -3.13443e-09 -9.52973e-10 1.8389999999999995e-09 -2.90554 0.965183 -0.102902 -3.13443e-09 -9.52973e-10 1.8389999999999995e-09 -10.278600000000003 0.731801 -0.0259123 -3.13443e-09 -9.52974e-10 1.83899e-09 -2.22167 -0.733487 0.20892000000000002 -2.03217e-16 0.0 -3.88251e-19 1.63675 -7.150029999999999 2.98659 -0.480074 55.9318 2.76259 -5.34362 -18.2507 -9.900379999999998 2.03217e-16 0.0 3.88251e-19 160.25500000000002 -43.8863 161.891 177.041 53.0082 -176.97 0.534778 -1.37327 4.68567
-28.878199999999996 77.1353 -116.17200000000001 -0.4706 -30.214300000000005 339.891 -3.21122 48.3017 5.17271 -2.58365 -11.028100000000002 -0.007609670000000001 -1.51485 12.4365 8.54779 2.9847500000000005 -32.1619 18.2383 -0.0 0.0 0.0 -0.0 0.0 0.0 1.62443e-13 5.47664e-14 -2.3418700000000007e-13 111.042 56.1145 -56.484700000000004 -28.0789 -39.9792 83.8822 -23.430399999999995 -74.5207 -30.4965 1.10082e-09 -1.3197800000000002e-09 -1.78413e-10 1.89054e-09 -2.19373e-09 -2.42421e-10 1.10082e-09 -1.3197800000000002e-09 -1.78433e-10 7.730909999999999 5.47488 0.417314 1.10082e-09 -1.3197800000000002e-09 -1.78423e-10 2.90554 0.965183 0.102902 1.10082e-09 -1.3197800000000002e-09 -1.78421e-10 10.278600000000003 0.731801 0.0259123 1.1008099999999998e-09 -1.3197800000000002e-09 -1.78418e-10 2.22167 -0.733487 -0.20892000000000002 1.62249e-13 5.4762900000000006e-14 -2.3447e-13 2.90869 1.4715 -112.85100000000001 27.7471 -41.576100000000004 -86.8009 19.961599999999997 -72.732 26.8813 -2.8002e-09 -5.48213e-10 1.23639e-09 -4.86604e-09 -8.08507e-10 1.95551e-09 -2.8002e-09 -5.4822e-10 1.2364199999999997e-09 -7.730909999999999 5.47488 -0.417314 -2.8002e-09 -5.48211e-10 1.23639e-09 -2.90554 0.965183 -0.102902 -2.8002e-09 -5.48213e-10 1.23639e-09 -10.278600000000003 0.731801 -0.0259123 -2.80019e-09 -5.48213e-10 1.23639e-09 -2.22167 -0.733487 0.20892000000000002 -2.03217e-16 0.0 -3.88251e-19 0.7920790000000001 -7.00422 3.13851 -0.4898759999999999 56.2628 2.79243 -4.8891 -18.6042 -8.78067 2.03217e-16 0.0 3.88251e-19 159.65400000000002 -40.0853 159.638 177.095 51.450300000000006 -176.981 0.194154 -1.54072 3.6412999999999998
